<svg width="256" height="256" viewBox="0 0 256 256" fill="none" xmlns="http://www.w3.org/2000/svg">
<g clip-path="url(#clip0_180_2)">
<path d="M180 200C195.464 200 208 187.464 208 172C208 156.536 195.464 144 180 144C164.536 144 152 156.536 152 172C152 187.464 164.536 200 180 200Z" stroke="white" stroke-width="12" stroke-linecap="round" stroke-linejoin="round"/>
<path d="M52 232C67.464 232 80 219.464 80 204C80 188.536 67.464 176 52 176C36.536 176 24 188.536 24 204C24 219.464 36.536 232 52 232Z" stroke="white" stroke-width="12" stroke-linecap="round" stroke-linejoin="round"/>
<path d="M208 80L80 112" stroke="white" stroke-width="12" stroke-linecap="round" stroke-linejoin="round"/>
<path d="M80 204V64L208 32V172" stroke="white" stroke-width="12" stroke-linecap="round" stroke-linejoin="round"/>
<g filter="url(#filter0_d_180_2)">
<line x1="19.2484" y1="72.009" x2="243.009" y2="208.752" stroke="white" stroke-width="12" stroke-linecap="round"/>
</g>
</g>
<defs>
<filter id="filter0_d_180_2" x="9.24756" y="66.0082" width="243.762" height="156.744" filterUnits="userSpaceOnUse" color-interpolation-filters="sRGB">
<feFlood flood-opacity="0" result="BackgroundImageFix"/>
<feColorMatrix in="SourceAlpha" type="matrix" values="0 0 0 0 0 0 0 0 0 0 0 0 0 0 0 0 0 0 127 0" result="hardAlpha"/>
<feOffset dy="4"/>
<feGaussianBlur stdDeviation="2"/>
<feComposite in2="hardAlpha" operator="out"/>
<feColorMatrix type="matrix" values="0 0 0 0 0 0 0 0 0 0 0 0 0 0 0 0 0 0 0.25 0"/>
<feBlend mode="normal" in2="BackgroundImageFix" result="effect1_dropShadow_180_2"/>
<feBlend mode="normal" in="SourceGraphic" in2="effect1_dropShadow_180_2" result="shape"/>
</filter>
<clipPath id="clip0_180_2">
<rect width="256" height="256" fill="white"/>
</clipPath>
</defs>
</svg>
